<mxfile host="app.diagrams.net" modified="2023-08-26T12:26:05.432Z" agent="Mozilla/5.0 (Windows NT 10.0; Win64; x64) AppleWebKit/537.36 (KHTML, like Gecko) Chrome/116.0.0.0 Safari/537.36 Edg/116.0.1938.54" etag="m84ibABdKnC92xvOqz-6" version="21.6.9" type="google" pages="4">
  <diagram name="Requirements" id="sd-QBAOcnEi-6MUZMzfw">
    <mxGraphModel grid="0" page="0" gridSize="10" guides="1" tooltips="1" connect="1" arrows="1" fold="1" pageScale="1" pageWidth="850" pageHeight="1100" math="0" shadow="0">
      <root>
        <mxCell id="0" />
        <mxCell id="1" parent="0" />
        <mxCell id="Bu0DQbusWQb4_ay1a5gi-2" value="&lt;h1&gt;Requirements&lt;/h1&gt;" style="text;html=1;align=center;verticalAlign=middle;resizable=0;points=[];autosize=1;strokeColor=none;fillColor=none;" vertex="1" parent="1">
          <mxGeometry x="159" y="-15" width="178" height="73" as="geometry" />
        </mxCell>
        <mxCell id="DLbPPfZfrP49q4PssJ6V-3" value="" style="group" connectable="0" vertex="1" parent="1">
          <mxGeometry x="-151" y="128" width="355" height="212" as="geometry" />
        </mxCell>
        <mxCell id="DLbPPfZfrP49q4PssJ6V-1" value="" style="rounded=1;whiteSpace=wrap;html=1;fillColor=none;strokeColor=#eb0000;strokeWidth=7;movable=1;resizable=1;rotatable=1;deletable=1;editable=1;locked=0;connectable=1;" vertex="1" parent="DLbPPfZfrP49q4PssJ6V-3">
          <mxGeometry width="355" height="212" as="geometry" />
        </mxCell>
        <mxCell id="Bu0DQbusWQb4_ay1a5gi-16" value="Compliance with W3C standards" style="text;whiteSpace=wrap;verticalAlign=middle;flipH=0;fillColor=none;fontSize=16;fontStyle=1" vertex="1" parent="DLbPPfZfrP49q4PssJ6V-3">
          <mxGeometry x="41" y="28" width="299" height="40" as="geometry" />
        </mxCell>
        <mxCell id="Bu0DQbusWQb4_ay1a5gi-17" value="Should have own trust store with &#xa;inbuilt CCA India root certificate" style="text;whiteSpace=wrap;verticalAlign=middle;flipH=0;fillColor=none;fontSize=16;fontStyle=1" vertex="1" parent="DLbPPfZfrP49q4PssJ6V-3">
          <mxGeometry x="43" y="82" width="284" height="40" as="geometry" />
        </mxCell>
        <mxCell id="Bu0DQbusWQb4_ay1a5gi-21" value="Support for Web3" style="text;whiteSpace=wrap;verticalAlign=middle;flipH=0;fillColor=none;fontSize=16;fontStyle=1" vertex="1" parent="DLbPPfZfrP49q4PssJ6V-3">
          <mxGeometry x="47" y="144" width="272" height="40" as="geometry" />
        </mxCell>
        <mxCell id="DLbPPfZfrP49q4PssJ6V-4" value="" style="group" connectable="0" vertex="1" parent="1">
          <mxGeometry x="235" y="128" width="458" height="322" as="geometry" />
        </mxCell>
        <mxCell id="DLbPPfZfrP49q4PssJ6V-2" value="" style="rounded=1;whiteSpace=wrap;html=1;fillColor=none;strokeWidth=6;strokeColor=#82b366;" vertex="1" parent="DLbPPfZfrP49q4PssJ6V-4">
          <mxGeometry width="458" height="322" as="geometry" />
        </mxCell>
        <mxCell id="Bu0DQbusWQb4_ay1a5gi-14" value="Web Browser for all devices and platforms" style="text;whiteSpace=wrap;verticalAlign=middle;flipH=0;fontSize=16;fontStyle=1" vertex="1" parent="DLbPPfZfrP49q4PssJ6V-4">
          <mxGeometry x="21" y="134" width="409" height="40" as="geometry" />
        </mxCell>
        <mxCell id="Bu0DQbusWQb4_ay1a5gi-18" value="Built-in support for Accessibility" style="text;whiteSpace=wrap;verticalAlign=middle;flipH=0;fillColor=none;fontSize=16;fontStyle=1" vertex="1" parent="DLbPPfZfrP49q4PssJ6V-4">
          <mxGeometry x="21" y="268" width="356" height="40" as="geometry" />
        </mxCell>
        <mxCell id="Bu0DQbusWQb4_ay1a5gi-19" value="Seamless support for all official Indian languages" style="text;whiteSpace=wrap;verticalAlign=middle;flipH=0;fontSize=16;fontStyle=1" vertex="1" parent="DLbPPfZfrP49q4PssJ6V-4">
          <mxGeometry x="21" y="24" width="411" height="40" as="geometry" />
        </mxCell>
        <mxCell id="Bu0DQbusWQb4_ay1a5gi-20" value="Ability to digitally sign documents&#xa;Â in the browser using a crypto token" style="text;whiteSpace=wrap;verticalAlign=middle;flipH=0;fillColor=none;fontSize=16;fontStyle=1" vertex="1" parent="DLbPPfZfrP49q4PssJ6V-4">
          <mxGeometry x="21" y="193" width="355" height="40" as="geometry" />
        </mxCell>
        <mxCell id="Bu0DQbusWQb4_ay1a5gi-22" value="Parental Control-Web Filter, Child-friendly browsing" style="text;whiteSpace=wrap;verticalAlign=middle;flipH=0;fontSize=16;fontStyle=1" vertex="1" parent="DLbPPfZfrP49q4PssJ6V-4">
          <mxGeometry x="21" y="79" width="412" height="40" as="geometry" />
        </mxCell>
      </root>
    </mxGraphModel>
  </diagram>
  <diagram id="4aWWaeKkYwlVj9sNBhfg" name="Research Questions">
    <mxGraphModel grid="0" page="0" gridSize="10" guides="1" tooltips="1" connect="1" arrows="1" fold="1" pageScale="1" pageWidth="850" pageHeight="1100" math="0" shadow="0">
      <root>
        <mxCell id="0" />
        <mxCell id="1" parent="0" />
        <mxCell id="TvLC0HYzYqnCH_JxnMHu-2" value="why chrome is Ram hungry" style="text;html=1;align=left;verticalAlign=middle;resizable=0;points=[];autosize=1;strokeColor=none;fillColor=none;fontSize=16;fontStyle=1" vertex="1" parent="1">
          <mxGeometry x="386" y="44" width="227" height="31" as="geometry" />
        </mxCell>
        <mxCell id="TvLC0HYzYqnCH_JxnMHu-3" value="why brave browser is secure" style="text;html=1;align=left;verticalAlign=middle;resizable=0;points=[];autosize=1;strokeColor=none;fillColor=none;fontSize=16;fontStyle=1" vertex="1" parent="1">
          <mxGeometry x="386" y="92" width="237" height="31" as="geometry" />
        </mxCell>
        <mxCell id="TvLC0HYzYqnCH_JxnMHu-4" value="at the end brave, chrome and edge uses chromium &lt;br style=&quot;font-size: 16px;&quot;&gt;as there web engine then why brave browser is fast&amp;nbsp;&amp;nbsp;" style="text;html=1;align=left;verticalAlign=middle;resizable=0;points=[];autosize=1;strokeColor=none;fillColor=none;fontSize=16;fontStyle=1" vertex="1" parent="1">
          <mxGeometry x="386" y="131" width="418" height="50" as="geometry" />
        </mxCell>
        <mxCell id="TvLC0HYzYqnCH_JxnMHu-5" value="what are the things which&amp;nbsp;&amp;nbsp;make a&amp;nbsp; browser secure" style="text;html=1;align=left;verticalAlign=middle;resizable=0;points=[];autosize=1;strokeColor=none;fillColor=none;fontSize=16;fontStyle=1;fontColor=#FF0000;" vertex="1" parent="1">
          <mxGeometry x="386" y="188" width="404" height="31" as="geometry" />
        </mxCell>
        <mxCell id="TvLC0HYzYqnCH_JxnMHu-7" value="what are the things required to build&amp;nbsp; &lt;br style=&quot;font-size: 16px;&quot;&gt;a minimal browser with only search functionality" style="text;html=1;align=left;verticalAlign=middle;resizable=0;points=[];autosize=1;strokeColor=none;fillColor=none;fontSize=16;fontStyle=1" vertex="1" parent="1">
          <mxGeometry x="386" y="227" width="388" height="50" as="geometry" />
        </mxCell>
        <mxCell id="TvLC0HYzYqnCH_JxnMHu-8" value="how lite browsers available on market / playstore&lt;br style=&quot;font-size: 16px;&quot;&gt;work how they are small in size and fast also" style="text;html=1;align=left;verticalAlign=middle;resizable=0;points=[];autosize=1;strokeColor=none;fillColor=none;fontSize=16;fontStyle=1" vertex="1" parent="1">
          <mxGeometry x="386" y="275" width="391" height="50" as="geometry" />
        </mxCell>
        <mxCell id="Z4trkv1aG_L-IVOclruQ-1" value="What is web3&amp;nbsp;" style="text;html=1;align=left;verticalAlign=middle;resizable=0;points=[];autosize=1;strokeColor=none;fillColor=none;fontSize=16;fontStyle=1" vertex="1" parent="1">
          <mxGeometry x="386" y="332" width="124" height="31" as="geometry" />
        </mxCell>
        <mxCell id="Z4trkv1aG_L-IVOclruQ-2" value="what are the things required to support web3" style="text;html=1;align=left;verticalAlign=middle;resizable=0;points=[];autosize=1;strokeColor=none;fillColor=none;fontSize=16;fontStyle=1;fontColor=#FF0000;" vertex="1" parent="1">
          <mxGeometry x="386" y="380" width="360" height="31" as="geometry" />
        </mxCell>
        <mxCell id="Z4trkv1aG_L-IVOclruQ-3" value="what&amp;nbsp; is the relation between &lt;br&gt;web3 and blockchain" style="text;html=1;align=left;verticalAlign=middle;resizable=0;points=[];autosize=1;strokeColor=none;fillColor=none;fontSize=16;fontStyle=1" vertex="1" parent="1">
          <mxGeometry x="7" y="433" width="236" height="50" as="geometry" />
        </mxCell>
        <mxCell id="Z4trkv1aG_L-IVOclruQ-4" value="what are the advantage&#39;s of web3.0" style="text;html=1;align=left;verticalAlign=middle;resizable=0;points=[];autosize=1;strokeColor=none;fillColor=none;fontSize=16;fontStyle=1" vertex="1" parent="1">
          <mxGeometry x="7" y="367" width="285" height="31" as="geometry" />
        </mxCell>
        <mxCell id="TvLC0HYzYqnCH_JxnMHu-1" value="What is CCA India root certificate" style="text;strokeColor=none;fillColor=none;align=left;verticalAlign=middle;spacingLeft=4;spacingRight=4;overflow=hidden;points=[[0,0.5],[1,0.5]];portConstraint=eastwest;rotatable=0;whiteSpace=wrap;html=1;strokeWidth=3;fontSize=16;fontStyle=1;fontColor=#FF0000;" vertex="1" parent="1">
          <mxGeometry x="7" y="285" width="309" height="44" as="geometry" />
        </mxCell>
        <mxCell id="vMigulafdaCxbsUbC0Ue-4" value="what are the programming language used&amp;nbsp; by each open source browser and why they use that specific language" style="text;strokeColor=none;fillColor=none;align=left;verticalAlign=middle;spacingLeft=4;spacingRight=4;overflow=hidden;points=[[0,0.5],[1,0.5]];portConstraint=eastwest;rotatable=0;whiteSpace=wrap;html=1;strokeWidth=3;fontSize=16;fontStyle=1" vertex="1" parent="1">
          <mxGeometry x="7" y="188" width="309" height="86" as="geometry" />
        </mxCell>
        <mxCell id="vMigulafdaCxbsUbC0Ue-3" value="How we make our own trust store what are&amp;nbsp; the requirements" style="text;strokeColor=none;fillColor=none;align=left;verticalAlign=middle;spacingLeft=4;spacingRight=4;overflow=hidden;points=[[0,0.5],[1,0.5]];portConstraint=eastwest;rotatable=0;whiteSpace=wrap;html=1;strokeWidth=3;fontSize=16;fontStyle=1;fontColor=#FF0000;" vertex="1" parent="1">
          <mxGeometry x="7" y="126" width="309" height="59" as="geometry" />
        </mxCell>
        <mxCell id="vMigulafdaCxbsUbC0Ue-2" value="list all browsers which are open source and have minimum one unique features" style="text;strokeColor=none;fillColor=none;align=left;verticalAlign=middle;spacingLeft=4;spacingRight=4;overflow=hidden;points=[[0,0.5],[1,0.5]];portConstraint=eastwest;rotatable=0;whiteSpace=wrap;html=1;strokeWidth=3;fontSize=16;fontStyle=1" vertex="1" parent="1">
          <mxGeometry x="7" y="44" width="309" height="71" as="geometry" />
        </mxCell>
        <mxCell id="Z4trkv1aG_L-IVOclruQ-5" value="list all opensource decentralized browsers&lt;br&gt;which support web 3&amp;nbsp;" style="text;html=1;align=left;verticalAlign=middle;resizable=0;points=[];autosize=1;strokeColor=none;fillColor=none;fontSize=16;fontStyle=1" vertex="1" parent="1">
          <mxGeometry x="386" y="419" width="341" height="50" as="geometry" />
        </mxCell>
        <mxCell id="Z4trkv1aG_L-IVOclruQ-6" value="what language is used to build this &lt;br&gt;decentralized browsers" style="text;html=1;align=left;verticalAlign=middle;resizable=0;points=[];autosize=1;strokeColor=none;fillColor=none;fontSize=16;fontStyle=1" vertex="1" parent="1">
          <mxGeometry x="386" y="467" width="284" height="50" as="geometry" />
        </mxCell>
      </root>
    </mxGraphModel>
  </diagram>
  <diagram id="xRo7KkIqUmC9yuLDX-8u" name="1st Week objective">
    <mxGraphModel grid="0" page="0" gridSize="10" guides="1" tooltips="1" connect="1" arrows="1" fold="1" pageScale="1" pageWidth="850" pageHeight="1100" math="0" shadow="0">
      <root>
        <mxCell id="0" />
        <mxCell id="1" parent="0" />
        <mxCell id="Vo3Lo7QYqPArTFT9lNK7-1" value="1st Week objective" style="text;html=1;align=center;verticalAlign=middle;resizable=0;points=[];autosize=1;strokeColor=none;fillColor=none;fontSize=18;fontStyle=1;fontColor=#2FFF05;" vertex="1" parent="1">
          <mxGeometry x="-216" y="-25" width="179" height="34" as="geometry" />
        </mxCell>
        <mxCell id="PFDw2ohLOJ0xXOyDINGv-7" value="Create a block diagram of whole browser architecture so we visually understand&lt;br style=&quot;font-size: 16px;&quot;&gt;&amp;nbsp;and perform action like inserting certain things between operations&lt;br&gt;by totally avoiding technical aspect" style="text;html=1;align=left;verticalAlign=middle;resizable=0;points=[];autosize=1;strokeColor=none;fillColor=none;fontSize=16;fontStyle=1" vertex="1" parent="1">
          <mxGeometry x="-7" y="-20" width="630" height="70" as="geometry" />
        </mxCell>
        <mxCell id="fJbxfaTy64lKZsMz9a4S-8" value="Make a block diagram that illustrates how a browser and a server communicate.&lt;br style=&quot;font-size: 15px;&quot;&gt;&amp;nbsp;Insist on the security precautions required to confirm the browser&#39;s legitimacy in India.&lt;br style=&quot;font-size: 15px;&quot;&gt;&amp;nbsp;This includes things like trust store , root certificates, and other crucial security components." style="text;html=1;align=center;verticalAlign=middle;resizable=0;points=[];autosize=1;strokeColor=none;fillColor=none;fontStyle=0;fontSize=15;" vertex="1" parent="1">
          <mxGeometry x="24" y="323" width="631" height="66" as="geometry" />
        </mxCell>
        <mxCell id="fJbxfaTy64lKZsMz9a4S-9" value="" style="group" connectable="0" vertex="1" parent="1">
          <mxGeometry x="-205" y="118" width="198" height="108" as="geometry" />
        </mxCell>
        <mxCell id="fJbxfaTy64lKZsMz9a4S-2" value="" style="rounded=1;whiteSpace=wrap;html=1;fillColor=none;strokeColor=#d79b00;strokeWidth=7;" vertex="1" parent="fJbxfaTy64lKZsMz9a4S-9">
          <mxGeometry width="198" height="108" as="geometry" />
        </mxCell>
        <mxCell id="fJbxfaTy64lKZsMz9a4S-5" value="" style="group" connectable="0" vertex="1" parent="fJbxfaTy64lKZsMz9a4S-9">
          <mxGeometry x="26.5" y="18" width="139" height="72" as="geometry" />
        </mxCell>
        <mxCell id="vVjRLrCaIicXuzS6HGLu-12" value="" style="group" connectable="0" vertex="1" parent="fJbxfaTy64lKZsMz9a4S-5">
          <mxGeometry x="6" width="127" height="28" as="geometry" />
        </mxCell>
        <mxCell id="vVjRLrCaIicXuzS6HGLu-4" value="Yuvam" style="text;html=1;align=center;verticalAlign=middle;resizable=0;points=[];autosize=1;strokeColor=none;fillColor=none;fontSize=13;fontStyle=1;fontColor=#FF2119;" vertex="1" parent="vVjRLrCaIicXuzS6HGLu-12">
          <mxGeometry x="67" width="60" height="28" as="geometry" />
        </mxCell>
        <mxCell id="vVjRLrCaIicXuzS6HGLu-5" value="Ashvi" style="text;html=1;align=center;verticalAlign=middle;resizable=0;points=[];autosize=1;strokeColor=none;fillColor=none;fontSize=13;fontStyle=1;fontColor=#FF2119;" vertex="1" parent="vVjRLrCaIicXuzS6HGLu-12">
          <mxGeometry width="53" height="28" as="geometry" />
        </mxCell>
        <mxCell id="vVjRLrCaIicXuzS6HGLu-22" value="" style="group" connectable="0" vertex="1" parent="fJbxfaTy64lKZsMz9a4S-5">
          <mxGeometry y="46" width="139" height="26" as="geometry" />
        </mxCell>
        <mxCell id="vVjRLrCaIicXuzS6HGLu-20" value="Devang" style="text;html=1;align=center;verticalAlign=middle;resizable=0;points=[];autosize=1;strokeColor=none;fillColor=none;fontStyle=1;fontColor=#0080FF;" vertex="1" parent="vVjRLrCaIicXuzS6HGLu-22">
          <mxGeometry width="61" height="26" as="geometry" />
        </mxCell>
        <mxCell id="vVjRLrCaIicXuzS6HGLu-21" value="Shivansh" style="text;html=1;align=center;verticalAlign=middle;resizable=0;points=[];autosize=1;strokeColor=none;fillColor=none;fontStyle=1;fontColor=#0080FF;" vertex="1" parent="vVjRLrCaIicXuzS6HGLu-22">
          <mxGeometry x="68" width="71" height="26" as="geometry" />
        </mxCell>
        <mxCell id="fJbxfaTy64lKZsMz9a4S-10" value="" style="group" connectable="0" vertex="1" parent="1">
          <mxGeometry x="388" y="99" width="292" height="115.5" as="geometry" />
        </mxCell>
        <mxCell id="fJbxfaTy64lKZsMz9a4S-11" value="" style="group" connectable="0" vertex="1" parent="fJbxfaTy64lKZsMz9a4S-10">
          <mxGeometry x="-594" y="205" width="198" height="108" as="geometry" />
        </mxCell>
        <mxCell id="fJbxfaTy64lKZsMz9a4S-3" value="" style="rounded=1;whiteSpace=wrap;html=1;fillColor=none;strokeColor=#d79b00;strokeWidth=7;" vertex="1" parent="fJbxfaTy64lKZsMz9a4S-11">
          <mxGeometry width="198" height="108" as="geometry" />
        </mxCell>
        <mxCell id="fJbxfaTy64lKZsMz9a4S-12" value="" style="group" connectable="0" vertex="1" parent="fJbxfaTy64lKZsMz9a4S-11">
          <mxGeometry x="35" y="20.5" width="128" height="67" as="geometry" />
        </mxCell>
        <mxCell id="fJbxfaTy64lKZsMz9a4S-13" value="Roshan" style="text;html=1;align=center;verticalAlign=middle;resizable=0;points=[];autosize=1;strokeColor=none;fillColor=none;fontSize=13;fontStyle=1;fontColor=#FF99FF;" vertex="1" parent="fJbxfaTy64lKZsMz9a4S-12">
          <mxGeometry x="31" y="39" width="66" height="28" as="geometry" />
        </mxCell>
        <mxCell id="fJbxfaTy64lKZsMz9a4S-14" value="" style="group" connectable="0" vertex="1" parent="fJbxfaTy64lKZsMz9a4S-12">
          <mxGeometry width="128" height="28" as="geometry" />
        </mxCell>
        <mxCell id="fJbxfaTy64lKZsMz9a4S-15" value="Harsh" style="text;html=1;align=center;verticalAlign=middle;resizable=0;points=[];autosize=1;strokeColor=none;fillColor=none;fontSize=13;fontStyle=1;fontColor=#03FF13;" vertex="1" parent="fJbxfaTy64lKZsMz9a4S-14">
          <mxGeometry x="73" width="55" height="28" as="geometry" />
        </mxCell>
        <mxCell id="fJbxfaTy64lKZsMz9a4S-16" value="Ahmad" style="text;html=1;align=center;verticalAlign=middle;resizable=0;points=[];autosize=1;strokeColor=none;fillColor=none;fontSize=13;fontStyle=1;fontColor=#03FF13;" vertex="1" parent="fJbxfaTy64lKZsMz9a4S-14">
          <mxGeometry width="62" height="28" as="geometry" />
        </mxCell>
        <mxCell id="fJbxfaTy64lKZsMz9a4S-6" value="Using a diagram, show how a browser works inside, including how data parsing happens&lt;br style=&quot;font-size: 15px;&quot;&gt;&amp;nbsp;within the browser and how JavaScript, CSS, and HTML interact to create a document (DOM).&lt;br style=&quot;font-size: 15px;&quot;&gt;&amp;nbsp;Show how the web engine, add-ons, and plugins function, storage management, cookie and &lt;br style=&quot;font-size: 15px;&quot;&gt;session handling, and communication mechanisms all interact with one another." style="text;html=1;align=center;verticalAlign=middle;resizable=0;points=[];autosize=1;strokeColor=none;fillColor=none;imageWidth=0;fontSize=15;" vertex="1" parent="1">
          <mxGeometry x="30" y="130.5" width="647" height="84" as="geometry" />
        </mxCell>
        <mxCell id="FrxckndTVkroL_k9e9k_-1" style="edgeStyle=orthogonalEdgeStyle;rounded=0;orthogonalLoop=1;jettySize=auto;html=1;exitX=1;exitY=0.5;exitDx=0;exitDy=0;entryX=0.002;entryY=0.494;entryDx=0;entryDy=0;entryPerimeter=0;" edge="1" parent="1" source="fJbxfaTy64lKZsMz9a4S-2" target="fJbxfaTy64lKZsMz9a4S-6">
          <mxGeometry relative="1" as="geometry" />
        </mxCell>
        <mxCell id="FrxckndTVkroL_k9e9k_-2" style="edgeStyle=orthogonalEdgeStyle;rounded=0;orthogonalLoop=1;jettySize=auto;html=1;exitX=1;exitY=0.5;exitDx=0;exitDy=0;entryX=0;entryY=0.545;entryDx=0;entryDy=0;entryPerimeter=0;" edge="1" parent="1" source="fJbxfaTy64lKZsMz9a4S-3" target="fJbxfaTy64lKZsMz9a4S-8">
          <mxGeometry relative="1" as="geometry" />
        </mxCell>
      </root>
    </mxGraphModel>
  </diagram>
  <diagram id="emiVFf2QKFIBihkXXNMl" name="Refrence">
    <mxGraphModel grid="0" page="0" gridSize="10" guides="1" tooltips="1" connect="1" arrows="1" fold="1" pageScale="1" pageWidth="850" pageHeight="1100" math="0" shadow="0">
      <root>
        <mxCell id="0" />
        <mxCell id="1" parent="0" />
        <mxCell id="G7xnfcxu0dAJec-kzKNs-1" value="" style="shape=image;verticalLabelPosition=bottom;labelBackgroundColor=default;verticalAlign=top;aspect=fixed;imageAspect=0;image=data:image/webp,UklGRghAAABXRUJQVlA4TPw/AAAvd8XqAPWO47aNJElW/llXVV+z+4+ICeBnqmdylsMeOgvK8gGuKrve+KIjJBds2fVox7ICnk+ydDtJdMmL1I3TqUCSJQ/TCrqirBdGMQGwuFwSqVpIKEqCAGEO80KdZNexqfJkQBWfAAF8pvI7k05f+GqSvDO7fed/4n62343cSPMH7P4TeW/zXc55fbXpNmdfbc7Rs/c576TLzTnnnHPOeSfn8cqTyHN+5/CkYpM/i6ZkbuqFBTQ3FdEagXSAuCth1CPUZp1GwYENCHCt5TbVIAi7jAI9iahWG7VutYAC4Fbbtjx5ImVOBsgeWSCVDpBWB3DcoXJ3t+6Dyt2duAvufDgfb7Bz4Ni2duw5v23Ftm1jCplQyq/8ynR/mfIdR/Ahtm3zffsvi7atuG3Os+JJQk9OFsbPTI+ifmB2/0+xJTnzAGN7y/aO2TuvmJkZVu6VJcYVM8MDsL3ENT0A1dorP0K/Q8b//4/IPHXvuZ5OzcRUmSGHSqnWVeWUfrKiqSpklWJlheY0pDnUUGkOla471CpNDsdwNkkOYttWqtWMAtQgByFIYj+Iu7u7ywzTyLarbBP52ci0kCbSG93gsMiHQlJCJK7/tGDbttJK41imyUVcpLqOcOSReCw/LM3/n8i68jLuxd3d3d3PlpXD7toK37m7u7u7u7Nzts8afwfMpPv//6dnMqeTUO5yfVY4HaqCw+551o0Eh3By6l+NM4vg0Leq+0IXVEGxbWt5E1BMijn5BhCUcczMzJwys/xJdaXovgH0d2XPKDuE35ZrHAkAQCazlzXbW7Zt49Edu3Xs2A861n9ZtK3UrbVIm7bHpt5X2hpBNHg/XgjQrkT+E/lP5D+R/0T+E/lP5D+R/0T+E/lP5D+R/0T+E/lP5D+R/0T+E/mP9uAbgS+Tw7vhx2KvyH8i/4n8J/KfyH8i/4n8J/KfqCK+Utr8VvI5UXK1bFIPTSP/ifwn8p/oB36Gb6f+DmKApMZztbI0+gyO+iMqK7lW5VepVojVpOHzUeuPcw4hA8nfJ/SRPAd8JgSA2sRQ41Wo8k6knPUZKqv4wUp+L2BJ+InHuh0AC50hUqKXMqD2DBVShWvEWgvgsphBi11FEijgK2ms2HLeGolQgb+GgA+BZuglXsE2JhSG1+sjShYzaLHYVd3egtXqiwoyYiRIyAXYSAb67X6hiEQWkkctDyxyBkMJM122Ji0kdFQMDJtSb1HF3Cih6hhkMOQQVZ4BS/aknkfIBV4y9hhtqp62WA1UjHIGQxmFjImUHVbVnhHzCicZkHqL3ACfE6qRKGcwVdB8vyyYVXTVPF3V9zk/Ivj+ohkuz3AGNtGmRYqjuT3GjJgrkmrO2FSbB1FiAJCkCfUOqQXkAdmAEzm92JSFLIBvDlOOIM0adDtiBKGOD0tmdX9TeocsYsZgYhJNxgOkYYQspy8ROXsy7gBL58CSbeP6iwM5wGHOu/q2w7pCtX8kFJUixBiD8BzegKnXaMWKzcSsy2AqIxayHcZIHxFomZkJQ6/RhABrYkCSMxgrIPvFBdDYicQaKDLYZ+SAkg04wMoZjEVgEqYUsNC96ngdP6D2GWVgNWAHxCxnMFYBx6e0sDwFjplQeo0iJp0SByDYbJKBbLdGJsQmmmgdv4Hs9RGJFZUgg4swoTj3Ds1YdFQZbc5mGQDnwBOQRmTFqjscMbNl75UvWw/kuT0WM/Z3zy/0Av+9ABR+q7VuNIKjxTK2ybA0FhpnEePwhFIoyTLVOtneoylAlbLI5/IPwkaG7LjLgGbbQ6FUg1DZsiBzz1EVqnhLCDEWmRhHyyCUD0KmXiMPoYwaKIYQTeiyjhCK7TNK5BcHcisAUINziVThm87oNhJnoQr7La2EUDxraKwuhcbUZ1QBzKxRwhGRHQgUs05lcSqPQ4pJKDQ8y/Y8Yn8qCf2sJCtKflMS10PTGgmrrOe5Ji+ZVQATI4DZEM9KqQmutS7PsxWA/aa0VbekGuFxzFUJ/53Z+ow2AJjOLwOAwfcf5aIuSW9tjJ2LtPFjArn0H210E18Zq7OnlgI56L0o8QeOgVxsz5Gwne8oCLEAim2FF65EusOGV9MP9JdbuYOdn7tQ8p4YHRJKylm89B7liV40Qs27sGValoFeeo9yCmQhmQ/EsW4+59zpKKUWUfaR3KDfSGqRKOLNcu5aJXtrjNpGk3SHO9+2H7dTdBFd4tU/xj4jN9Xo2UZndbdyoMfqsVsdE38E6S+S9iauHRlbHI/H5JgRfUeRNQeP3fAFwGQsAShs+Zoduj30GU1kE2E3dvBt9qcmAlZz3N8qPRiADPqg7mhLpbH2FolnAzK6WUfnuYDU+DHQwVnKtPUab5akk7J1Y/AtTAAKuyO2z3O/cUJbocvPS+5CqT63sNDB7Ee2p13/cf9kV2uy+bwqNtXJ5XzHFB3ip87zxYJ3/72cUS9oVyL/ifwnAplrBc954Zn3PCXLwZ+FAOTgYD5aItjn5geWUw7mS8z6yNMv+fMo1pNsj5colRf8M39iHCtANuYFNuW6H8ZWmIz38OkthHtjvm0Fy/YciX6Lt2ElyMYSgfKMG6wkuYg+w3xSGitN1g8RYQHPI/cfZeKU/Nx6yY/PV9Dyg1PVX9PeActjKvvvPDVaCKkZh/IIcIiTVUruWmHxvDe2rUTZToN1iEj1Vw9yRBz7XRP1RwmZmkm+pHDkKCE3nnHlZauurEgYWckyCrbTzr8dSZ9x5Jv7W4iIfSDIUUfyM470K4I0+dhKl3HAHMNT8ft0QAoV//dO7O/Ll6D/8oxnnxvHP+Jafge+1ISpenX1Gc8+37wE9ZcnXocd+/AjTnrap4gb879sdelzl+D94tiKbzxaT32S1EdvdIwfPje0QDywZzz7+jPs8PxTcGd6f2n1SK1CEnzudHkmrz7PMe7zpMrP+EaDx962SmzvBZsmjRurqU+U6sZVX8i6VUrWg8z1j059pRxd+ti6ILSzjYhq6jOl8n81n1nlZBlYMvWd4vvYUI8NJMncKijz4BJ/uYrvo9hWke0isMRfBuT7GFslZRxY4iPLa/hA9qyishdU4hPLJ/tExqoyDirxffXx+EmKbVWxRbN3rSCdk/JsznIZGOLf6p/0oZywysIuercxPnGICALxP/WtM1u98LNsWK1k4+IhIvDDH7Uv5I9ZWu1k40QR7KF0e5qVydvT9OOMrYayPS+CPHxB+/ErBJy1A/Ub02lg+Fs8RFhdZTvFfsytvvLUM4oG9cmBxtjtJerD6i0nEB+HCM2xY7zHSHfsQYH1mGuPXS/w3pr638R8oNwNrBHkBNrFLtEu2wWyK598iBjNDwyBPYboOEQ46xpF0vAWP+fduzEeQnAUJzasiWSO3tij1zfQFW6jGFtzyRy1MSfXMNYVXmO5Yc0mJ9AaF63pZAOpsbduzSeHCJTWfny6bQ3IxQC4vyTT4KG/JCNrRNlAaP2DInOthQR3p1N/5Ae8SFaEiz2BzfyAH1tjMkZmfsCPrTnZwGV+wI+sSQWV+QGfWqNyrQCR+QG/t21YEJkf8OuWIEzY8Gk8cHTqK+UHJ6t9y+oXrWGZB2F8Y1/r1F/yte3tlW9xmQLrsmFesNiduTUvSMwP+Bf8s21gkJgf8GNrYHCYH/B71sTgMD/gxyZmhML8gC+sYH635RvXrpDxrig/OXXl6tUrrFw//EofS/CPhwNNcvVw0GR09KHk3zZO0EpKKieHwvyAn4vmH58DyHj4mbHGR9zhH/8RrJwdrrAEVw4HluCrdg6ajIA++R3357SSkkYoA4X5Af/EONL4giNKLUa/+xfe2Fw1zviiM1SST7oArrCMEHvAj708l/cDhbUvtLTSwB/WsTpcmNIVaaEZJMl3LeAd/zQZCX3gI5DnYQUK8wN+LI0zXG+LTUn5gCdsKMZFFNZ+/LY0ruOtHWEZFSMNyAi4fotLK427gbvbu9pk4xnVosBgzOVxeCuut3Z1wJmQUSmONRiMA4lcx2CAFGo4A/D0b3bxjPfDAZ2QzQiFYSVyeBpX9dJZUxS2KfHdBykjxU2OZhuyKRoEJkupvBGnLQdOkQ4HKaNCd8YNBmMklRdiaEeNfekgZVSIJQpjLpVDQmo5yoC/OIgZleEAiXmZLZe/ANohg2JGZRghQC61RQaFjJzgvevGyuWQ2jq8FX8hZVSGJQrkFGYTOvsL7jqSmBEIyA1UHscaFMhVPVrOuLubQV3GnJIT0tgu0OeoCkisiQeJURiXcRPijr9AvWO9wGPjEmlYtg8RLwR4DOMuSJe0QbqMGlTGgVGfxbk8Mc6LF2TG3JQcMPeKwNqPfzbH0N2OtMH6Ab80YykNjtWssH7Am9opTBusH/AHJtyCDw3u/+njdkuvPFWey+KeBfK3qmuCfPTYPx9aR/0/nZsa3e3v9KHPo6S7xpSrIMVTXI32u5mVydZe7ffPo6RDV4C/0yuvJ+ZNYCf69u//0CdIxKsgxf1uZgiJ3zm0bvYDftuA5eOCO3T1Z+UBO+1nMMTISImPFiv76mU/4McGHEyX4A5N/bd66nFw87LBBLne0H30SVQr+wF/rcDQW+rrfsC/+E25KGwyScbHfJi1sh/wT4xj5jW1df9cn/SvOiaKe3+d7J/rPKxY8zZtl1W13FT5EF7wT1jxTKUjX5hdJCyq/uG0WnGtvB2kz/+Db4wsRcb/qDr+D1Zc/rmOm+B8lX3AC5FeZ5+qk/j4K3mdPQ3MA/oVS5M/qndDK7KxJNpomiYoL69x6NZeTR7jocrW11hRBXKiaZqgvHzyEyQil/NwH9dBEsszdTeboWr9ZD+fdzho7YaZZvXxHHrAhg+QacRD6+P4GF4rCCPWbhrN6p981bvAAFdBijT4eZRUI8eD86Kp2GsCPdGsvvUHOwWw7JjI71XSD3j/J+thxLVe7QsdCpicRBQx75EScOIaGX9fh4jtEOJ5vfyA/7PDczay181owMz8WaHtaa7MxoNzHqTPr7rXcxLkNcgTJGKtjK+657xgojzDQbq8xJSUvOaH+flO1bJCKi63DNS5R1qWvObc6azlGTc0gToZTRTWKDTWst6EA3hhjUJfLdvX/RC0Q1svC7pgY2kTtENbV0atjgJLpWZeXdBOIK1rMs0hQuasB91TaqYBBu54yWs+XENE+eo4pFm6t/MQyWt+iTmpI6LadhzOLF13NrInd816IoqDx+HM0jVy11EfRC1zodhMYdXzPMzPyV3fPSNrgyi9Vm1m3Gp63s5Dncw175GSmiAqxZXLi6HtpZG5vgpS1AJR2B4WzXxm5K493nDKDrss9dkh1Oaowz9EhEwz/bphaRLxVTH6ejzLBkKomS3+MSeN1xoZggnLtpMqQUJeDO0vd8/IsrhlQ0eXjzhmN1makYsfJXmpQ8t0tDRn6kAaZeAS0ZDaRtvMTAfzkca9BrBkO2rB0pyJGR8bq7r40obgLM2ZR5Ii8RkJfdtx+WJpyv8c6YVIP42zBF54t2htzeVjaMWN+DGKokfMQ9cxz16vjY6bxWNnB8ndmBqHoCGYWE8+gXtln2xNui69ryk1wN4370uy98qLCKaT7/unOrI5M6/99+d7ZWsRxWPa9/jP4QjY2Yn8x3yytyjMe+kiM4+R/7zHf7QuTRP5T+Q/kf9cD4udnch/Iv+J/AcR8fnD9fgRKasrwfLJh5EhH4ES+c/z+eVqU6Zz8AzCx9+trfEzmW5HGyz7iaXJPwON52oicdZ4ifzvVo+SG/AjlX2WDwmflXriJywZBi+EidLHftjgGxFYSdSYs30vhI9Wo5ySWzEksdavIaB4koFd+YDqtgGjUkiwSCr5QaWJFDyzYnDuFfnZ0y7/hCd/VNVAETSfu6F5I3W6VVV6JREWYMmOVOkWWJQmKkNq/lyQFPfHzG8zGy7yjJnSpBngmBwxNeFG9inEqYxYuYFl7WOqGHVXRVmcl9QckYTPvteIDbD8SjVnWGfPA4PPgvjBmmNFlfnAPwmjuAEpBzjFYVDcikn4ticpd2o+oC9QxAy0k5XWX8G/1vATYEXkZqsXJcCy5ensAGLDwG4WUNzOeVzEDHi7jRILgJSFTdX4JWwsWK0rmnbnRpblAMue7QvAzABA7N6Aj5gBb7HBtvPldX+MrLJ2BZilYHM2MWJirR8+ohmLGGKMc+cyE2STbLY7Hth4W4dU/ApMyuCc89mIQ1FImYC4s4FEjZiBwWZ7eMXIyWVEEG5GnUMjF6wkFUuTdmRw9JE8tNhICAbYxhOyAsd25hA+J18hpapYu4G70BdrDTKokWJioWQRE9vGmFmIJc70S9yJ5JjrzdIZLcigRsVsZMLKlr6ZPCgOZZdkRcxAstbYEGTsCBC+wMks+QcHeG4iAwGJPGbMu5BZkmysNXLAxiZEJxoR5lowZFmemzRzQM2cJSow1ghYOiFVUlcGlibeVrODlkeMwibCAP/UK4yLTh7pJsSCHEmqGWC7d4CV2hWcmsYYIyY7o0XXvtA5nFtM0ljnbDaM43ZyfiGPudUMQvYQEnBpu24NXGFiM3Udlq29GioloXSR8fAVTEpAHLQj8cWmMkzKLqbsOLUbNI9g0v7wwSpyeWgcRzQ7vr18sjmGdJ7E5vt/CiexZ3+naWc6l8gWHqWVzcvxKPk9/tN/F6Rz+NeAkmxO+vXyyUa6n5i9ZBpESgOXHM9FKMaYZwDM1QVMSqB8ksYkvx2TkhwGQvHHFVQ6floNkQhFzAAqZQKLjiEBrjz+HC+46iJmAJkyOWkM1un4GLayyDbouERWGTED2LN8ckURM2CLjieR9DRusFTH8Wka6RdLdPy0qoiYAZt13MpaSqpsuY4X3ISPmIHJIh2nPbkRM+Dt2PExTAGKmIGQbNpxiUx+nWey9und/saDs2kiPsG781Ag8p/If7QuOzuRt9iKdtAOO8hfP378lU/tmD38JPl4Kz8+X6EwR+ZlHTiMKEejLvbXdN17SMPVlFPl3e0j9pqPqzWxZGLP+jDnaCKQfJtXLI+r65kfVx2bkmGP/ojzy3v5B9NREXMUXqtHsdd8KgBihdizPon6GpAcSAkqCcsAiD3zI/f4RDXs0R95fhNoWlwHWd4F1PKu1Gs+xEJfAFNNz/qw1zPaO5J0ABxBr8Se+dEw7dGfVOtI59fyXv7RCUsX+8UMZMVCXuJP1QlTSuJ6gpvjmrK8nsCyoAuEV0JefFV2G4G8aNEWQepZn4F+sYjZ0aQrViLTIvbMj15lyRKp1ReAxoQmi07w9YRNXE+I+p60qplPKXa1noBDIFV5TohEYVW3MmHiHIJM7JkfmWmP/lC6LFpRaq0FWEgG4apgJUv8esJ6ggWq2wKquJ4gZMEh1FBIBa7rWR9aL1sJZGLP/LS5GliP/tArXRatiPTnNNIMwk+leLLEb7W0r6y3Q2A/dk0WJEKEJcu+yig+2WYxyDW1TOyZH4l5j/5Quiz6sSFqjJjZK5PeRqU/YGuwnnA2P41DqKSfJQan7VmfnFA5F1BlYs/8yEx69EciZdETp1V4h6yM5iZEzXqCJosfh1kPw57Xohzm7DA7bc/65BULEQcAg/R8mKM9lWLEqEd/dPKksmhJZbSPVwnRnBW24qN0WXAGUq/5UJ50I9XmtD3r41GkOr5mKjZlaUHfoz8BqAIpy3ENSQFJi6ZqgTx0jeJ6gpQFeeDE5tMBfoV12p71SZh5TbdilmvtFsx69CexxJosehHIesKoWU9YBEFLXE+YgeKk9QQpCx5hhgtFXApdSI08wnEJxcBixLRHfyhNFm02M1hPCGw9wUmPV1ryesIWgCQQs6ARElas8tp/xZpzCJnzwEaZ9MxPW7nwxLosWhFzHjDxDLRYQTEf4G09G1tP0GTBIlgAU3a6nvXZMEo13YpRJ6oadN0qRsGoU6NjjwKSWciiGxOGnDv9trxOUBhNFixCDsBCoXAjNklC0Jmwil13u5L6Uou2Rc+YKF0W3bCApbTtM1N7vsDpnT6b34pFWFUcJ/esz5gLMkcHNSywkG3dPOnLH7rP2SLhaXzAQumyaIYanHWi+jmObsZsbo7khzNycha0gdhrPtSE2JB71mdZsAroIJ0QKQvtmZ8IBFUBFpQ6BwxZ06M/A+vRHym9mEU7JhSdme6oEdTkZr7P3CYb6crAKltZFswBK5VyZDyxZ31SnpEEdJCQ9tgYART63NYysGMAm/Xoj5dIWfTDAovGwtYTgukxIoQ0Vtg/WZcFo7QvZJ1z9Jg5HQRcsh9QTfvuh6cxzaIbdJBMSFhPWBHmga4n+EDXE2IWJhSblIWnkXieBQO165Zc3kHRDzooryewJf4yINicl0KX/glh1+1l0K8nSFlwZ3uaC1lPYMdzM19PsKZZcCe0oTvZXZzXDXOB4drTNJ5cLxrj5O+00fvDd5hGApT+Tr+HT/Cuv4LRMyQPkvx9SPZHw24WuDoiQ47MDZq900IzoytYtA+H8qGuDkY4SS1bvBl+Wh1bgnW7oU1hiMEt3HrDUTwlQ6aMwWfhlAP6oVZDm7meJgmhc4+s7utdtcxtZ5IQPPfIar6+a993Rgnhc4+s1hOCWULC3COzRsfHUMbcI7NFkTL3yCxR5Mw9MhyKpLlHhkKRNffIMCiy5h4ZOuWKwLlHhk3hL6aByM8jyJSTO1w0a9wpFd7CpdzMdWvCvhEsJ9Xz4gqbmbKmmfu8FIpjhDx1ojwvrqRa6QwcCqdwt9jsitlaNz2G+UR5Xlx5tdIZN1E3hVuzF/FdoMeep/ET5XlxZdZKZ9hE3RTuLSz6RDyRwifK8+LKrZXOqImyKdwrXHmDU0+pOnwyPS+ujJkpa2KXk15DjUV1ZReRtiL+9SR5Xly5tdIZ1IWwv76dxVrI5Bgm4Si+Q/DKk+l5cf30zJT9tYP5gSjbz0XVFO7LeezGcU35mv3Kk+R5cWXXSveQs89Ll5+rUHQhiqRwPYHLWOphTpLnxZVdK9250OhZxMucoWoK9+VcIaewG6MYp6AB5iR5XlzptdJdwx4zZ6iawn05T3S+dqUhhLJ4bG35Dl8/V+XVSnfPx68xQ9UU7hZIQZUD+NAdF46m8T1EefzVmKFqCvckV1jFTKD41xPn33LPAGcEaaDk6cY/P1NKI6Q6HicYRkPs/Fejgtv9GMF/MuUeXbiHdbSn3NzSFBMhLjpvmV2aPY58w5Oj/L+XlE+8LiB6MI0eytPj4dvscjPP3aEXmnFDHdRfTr7OEjyiSL4oI8T1eH+zyxZfDZO+9RMu7KPnk6+ToxtmRIHTmpBYc+K7SmXdJSOXH0ByIE/tPZqdcTB8HOd6AbcsQqxIbHZ5Nvig0qYdllxiUn0yYPfQgDfTgJ9hYwzlv/Peo9kZB8PF+ZQ3lswxhpbrwDPAn4Mbfhn8FDjyzarADlvODVvXnrJvlJbuZ0rc1sfdoK5dALZQ1if3H83OOBguzmm94NjwGKPD8UPzyrXg9B+D3wK/AI5Q8n5lTSLnHtn+o9kZB8PFGXPHGQgFmkHI4YRqeuRAHWZUubv9v18HF45A4ly91vK4uLlHtgfpcMbBeOV0rQPR7tw90rImobaUZ3DJnaL4nqj/1R6kwxkHI5cu6xHqSHmGB3m7zi4xPHnhwt/9PW7nH/YbHc44GDEATcYPU3vAhh938yQqbGgRakh5hhe+X+E+EMHOn7GQy/8/dvOR/UjBMw5GPAgNxm6jRagZ5Rn0ZVvA8kjA6pK+2f7Ns3+17+hyxsHcwygmR6EX7moR6kB5BlVYARwIWAzK/mjvSOh6w+qfcTCcAVFEQItsqD6UZ0i76XGD/34YleO90d5xwIbv0XdUP+NgOPm07Ktj9AT1pjyDcz87BA5p6LhcH+vtHVClMPzDip5xMF7Ze3xyASeBHh61iH7yyvQO0XT2DMmp0IobF59UnyIjcTnfG+0dgR0eXc44mHu8Vvs75TjD7QpfBjxo+FdTsFK9QzSHPWMRbuwg+PLnkJnfG+0dYab9h3+aomccjGf+TtNMTJrE/uSK9Q5RVeUZUvbxA2H7knh8UDolj7kHTe9kcNg7wtymJr7esGpnHExXPg0ZQjtgwwcvwUh96yvXO8SlLs9Q76mX/3SQvi7qTXn1y1v822Cwd5RUw53wKHrGwXDh6e4YgP/5g1i8u7l0FFCwbfUOcUnYM/QWKfaOZ4+pdirRhxSCnpz6ZxwMgLcaKN1uXnvvMyr67B4OKtiGeof4d8s/Bo49w9jyZpsbx95R8DrNl6PZGQcDwFyZIOzmNIMKVrJ3iGrbMx74BXBkAMjNDxjE3hF6JsubuaZ0OeNg2h1pshlYsJq9Q1TWnnFkwIhr7zAmyola3DYKrKlo/lBpaM8wvL3DdHfUh77DlpPsrWV5qRNcU9X8odLKnjEw7B36r6IgPn0iuJTyyeI7G83Amer7DqyJPcM/2juy0HrH8sNzOcHVTMYXulHgzAL0HVh5e4bftHeEeVMSBLQQTvZeUzGREZmygTkYNY14wIafc4OaP1Qq2zMGpr1Dszo8vOOoIg5iTiREpmzQxlSySMXDH3RyoQA5ZQdmaUtJe8YgtneoXIcH5mYRUXKpiXwEktIjU9aX8t1B/bHxfJZ9bXTh1E/4tIwSQgtQCVKxLCPoCLVoAPVgPZangGP4B1I9nqPouBS9xedLG5TE+bbJ+dXz6+Z/XNqvQM9B3ECJVuALqtkzBry9Q486PAInFUGNTFnBfF7fJimPabVBHj228/7LZ9PpJ7KD76hcctgkFKIUgBT56lrD2W6N1pnSDj6SJvbXlL6XcveT2SLWdknZZB2yqzaklLloHwXy/E0/jk9lOSWEFqASpGJ5/hM+zWWNUAsAUO4Nvq4/L70I6JGdgo7hNf+/ruKWG0kzj4LSnK3ou342ny9d0MazLwUpX7G+jyZddU4MIVzWOQsvMMA+NKljz/AN9g4l6/AA7a2rCGJkyoqGjjFeI/f3/stnmyTn45yQ99q5opRymeZ5fuDG0Hmev+HpC6HFm8cfaZ0pZQAuv/PpBykvup/6b5KCmOaUvM7dxy7jkPM8g5U6MDsZEXNzk+dXcYsFcKMTB06NPfuunw2wyw7dZ1wC6CZTia5yg+rh6u0msmd8MYDkwgXX3O43UH4ZEoMk+Hpu48bL/lUM2fhXOZ4m+19pae9Quw6PpCJIkSkrjzzvN4kF0ONdfLej0b6Dm2I+5/D+y2eUUmfJqHmTl8svlGaDCMQbNPL8vBfy/KzRaV07gxfyV3OSH/0JnyaOz9qFsZsQym+Vj525+aRRQe/RQ9kn7gwmNpE9A/zDaSpuAO+N8uEAUNwZSPlipJCNG3I8Tfb7NbZ3KFuHh4ogRKasFFjx7GacA7I7OkZF1T2RsiYj5aunj0nO83IKoTwuBvlvDfddxBP5rsH47qDetq0b215xdnDNiSC4ilstITRrDke4uPex8Xz2P8ST7GRzdoSwSxw5BR+FJy5y2qDq60tPX3NRfdmV23ca4+IwddRyeRYg8WjPMAX4M9FlsPJp6OE3MKS7vUOZOjxUB05kUu+e76m083lSj4PYvSIi4Sml3P5oRMb/JD0b2nQMlfcNb3gtTSZU6oHrd3fPwtaTc1NXzrOUOmcuIA2geBhSjI6Or+IWBEO9e10FmLh6XXGTz4yj4Ic8MjDaoGS6dN5e2hKpRRddUSjTcC7Ly4Cq23aSO5+EWfhiJBVCuU/vrR3R0t6hRB0eKxX3SzliB1S065oliEh8l4x8H9Nq07bhnnhTmJIpZT7ewB42nuSNyS+lTrmMPibgkB1hK7VvbKg4t+TmH1w6FsCBCORjj68xmuXWgzdv3tqNrZ2dCzKRMgd8ABQKtRdS9oUS5jXDG+XIJ2EG/uUGKcxzkZyphoz7foR3oRH1HmA02S8ZJJ+F7Do8ViqUHeL9l8+gaHdKsElqcZBT2hFxMcVZft6u7oWikd8OQEArBcOhlNF5NaHOGgeAAnKhm2q08JputhsmtegiEzlzwEcBWsTRbPG3cNxNgk/QmI/hd5/+Y0BVim4QqK/uGDysqcgfppN9QmYU718NVJX7H4PTd8usw2M7wCjO85iO4K+ePiYSzRnNPj+nApb/FY2fS549ac016mZ5XqrNfxgird3PdoLUootMJM0BH/lkxoyFCOlo/SfZq6jyF4bjTn1F/hsAgMwsnrHKd/w5eAaQW4fH0uvJaU5GmCsyKmG9C+hGaCsA1hKtRnhyL3IecTW617ESc/Jq7of/UzT3muBPIt7byYVkeUomkuaAj4o4X8SPKC8XjAicviI39FychtHKd7x0Vt4h34bHdoApodV+nseuGldPH7v5JwDOCUFFPr0M4PHunHeIjUq55sg1J4LCjXTd6LvlwXmmdMtbMKG/5mvho/DEUwAuEWJQ0pB8L1SsWx2gWFqViqQ54KMAuPVQ1HVtVE3VU63OBlBbMpO9Q2ZPK0eR5baDpj8HhF2DslEQ37Wtk7hvAUK4nz8unBrrM0fWIb661tjP8/yYOaGldXEj5aN53jlRcsZBuUZpyGStpL4GhI/CE2ojuKjfbvhUuXSR7vnRHqZlAbqKRqlImgM+6tEUj9Q3s1f5/ycvs1dTNGdmFbmJqGNEuZ8pwQIoJRrEO0HYBrDu2jV23WjezTnh6kblHiaS3AJgLSKvBd5uLCeOmyLOyFzL5w3OWp7f637lxgKSK0uu8hpEVl9h3HwQeMrQtVsX6fZtuyBfXoykOeBDsaOMuFTiAe1Jr0dPNDKzHcwjAatIXg+cNaUyz0VtE9yaHE/O/lfGA+dtT+yQxG0ARBK5zvN9V4GD/TzvKXYdHY6J4L/VNGjrtHfg0hsGp3VS1K4Rg5u17w7qpzhpTwlENaFcNHTtWbrMfmsXAwogYQ74KEbJF4WfvRSwhTxcCSnO9zBnIHsQjzYWmghaboP5NBova80oXm7E1V/ARZDzhgKFcGR5G0CW57Fj1shcBVxdjtGczfNcBGTqtHVaIOc2R+ZeJXs1lbWX685ae68bE7PvrF3FrfaaE7FkHoU3rl0EYDAKuzwIcj9HcRRJc8BH/p2EqSfxuaLPYig3zV9iQm5E4AFZPSPll9G58d4Al49dN/dzKJ5sTr6TBnTrl5iScxDFHtsA3Gi9dzU6R+b/ndI8ptUWAZsb+hzdfwtZJT6bEaXkTA5RJCNvAZjq8UCqI5bP2kUb12io/2g5IVKLLjKRMwd8VChj12PKL3YoV0eMCNlKWHSD1eUiId5x6ysYrj1lv//9r+QiJ7saIRmr7a9gtnMc6UY6tVo2Jd3fI7iNcVQRqxCG0kUQafGBquc5GNVUkphm1IsBKsepivgKQZutu1sbHTIVnKnNa1rg93PvzvbXeLnMVeTMAR8VaACujBTnCsd3cmR3StyA/hyLAElvo63COTSlLSHecTvKDoILwOZMnbnhCQdX2V9B/gcLjuz/fT4lcf+hPPJkEMLQuojBN8vALsk6rcBX1xoAtRAuQyivFRWQm5Y/MDprREk2tbl2UY/c+jU3P2sXN6+xmeli/2Rsiy4ykTQHfNSrf9LPDey8WkJcp6FfYq96JaT4vRdwEdT9O83Ihahz340bZi7E4xau94VuEjTMOyS+wv4KZhswuxSQdMT9hxJCchOQ1FXMH3SVoXW5LOYHh4UHMP5CCgB8da0hhCchFVGcc+ufNDotkTdYcT5rF2b+gy9fd4C085SJpDngo0J96w40KVBq+AFx3P6bVQFDUg0qckP1+PU5BKHrUo8nVNhfwTwjktGLAceSrUjS//g1/x+GLmIeZg4LRJ/nec1F79I77LtkEKOem7dLHhetC4GqR8LovNqtMUd1bpk5ZRsfX+oCZblPIpLmgA+BYu0L5YTSk6MtzYbkwhMdccev7yFseAh2m/HkKvorqH3XFQHnMBdJggWBgXV50Dvi75PzC8NX1xrsetBozrmco0oa52cB3BYsBNSDdiq2RH8iOyChDiXjZpN4azAjrIp3ye0zIr5tJaCfi0t0eZ0e05fNqSsubEWPEu0XXXMiiId1rG9d9BzwkQ58Jplydg/xXXMnFlMX+iXG5M72zOKZsDmimzV0lNWdlheDilHmAU8r8J+hxRUN6Ry7Yugihsyzm9VSZnz3WOFAGhVRT3evnj6O6ci9zsHcE3kNsgmyPyWE1OXYLtFGUU9U55PTyk8J9qfTc8QBMOr9nX51rQG8GRxz75oTSFoKN97NpCGV04ZQOCAqbvek6DUnQsf2hSTNAR8ayVfC5B26un8KGJOHZbXJYephDRM2v5lBhnnDewvCiipzCDnTnTLNJf4r9orO59SkARLDIPzWVA7YMMU+2BYFkHLeBRQAGR2jgG3Hx+A2hDZzAiopDls74k3WIe8C1Hme7xudNadNTeXp+DhVAm3HadmepqQ54CMLaecPFbNBePPU+3sf0wwyZwCeePjh90ZPjqfL/g3AaM3NZ0TF4DQuBqePA1YnslSjuRyBKqJ1OS4w37BYz35aFPqRywEJkNrdJGJ+WoFNmE9kB1ysxQRu5A1ZPshsaax23fhZI+6aGycR7FS5ozjuXT5+wqeR3/MdbU9piaQ54CMLWecPlaEaKgb/cG5DcCdTWSo9bTw5nYGaOebnKkhR6Fsljar6K6gRjSYkbbcerQTSRRheLExrF4K/Xz19TJuG9wliWo99Oidv7CoAs8nF6MWVR1DvFlSB5GPA0W3SxOfWR7zQCf2pT+svyXcH9WtOhGvfPqUpXsRDX2cVQVTtWo/wOD5hMH4ZaM/r9oChh893ct22EJDV0KW5buasV8EzETKVc2R58mauKU/+Crah/XsEq3orLQlAXUT3/7QPCUaaEKniT2QHL+53w65MtdfOT6e7myvtfupopbOk84eK39EfI3HhAd15jF92n6ELD5z3VHNTyBfBj8OkTDz5K6jTYiCT9+RPsAxDF8kYoX9QARQyGwu75f89O6BiLvmzl92oR6KxWA/3WJJs/OyOvP4KmqvtZD9gZWBd/kn8HY2OIucPFZe9Y9CLBu5g9eXFTb5MRM/4PGomB8rrr6AeiNGQ/J8Aw9BF8Cqany7FCnyd5rd3mJZjoD1Dck5DUpI4p6r+Cmb6/tWyAzZzkdbwAyzdXwPWRRATvn2CoLUfkvKF7B0il5jN3nFstmdIqMNDLu2cavoryE8YiMDePmBbwwNWVuimk4VfwboIohX0NbQ7Spw/VL7A3qGhm5nJSWWSyWUEnQnF5wREcqNIkoQsG8k0HQLD0EVU+WQOnYbB+KLC+UPlF+wd+rlV3JDAjcNZdf0V9AXlayj0wNIOiHUEqmb/IRtYGgmkixgch07DI//8oRrE9g5TuPM6ob8JzcQx6tlV9VeQvxnLhoJiyRuSsymzbv+hvLE00iiQLmLqQZt5FmMGgLxDZCbOH6qBbe/Q1X1teefiJR3P4pzN56AvIZF3hn+moEpjmEVYfesaGuX/Jb3k2zsGvz1Dlzo8JCBG/LSTt3CZsPaFjAvK2DsGuj1Dnzo8VNeepllBPXvHoLZnaFKHhzlGaXvH4LVn6FGHh0FGfXvHQLVn6FKHhwr84QuJ0MTeMSjtGVrU4WGS0cfekZvV3nHhgVzK8BJpUoeHKvydDoPQy96xNKK94+aX5ktpbr5rUIeH4WX5xbF3PGAqHrjh7yWPKYbydXiYZrS2dxjHnmG8OjyMM/rbOwxhzzBhHR4GGkPYOwa0PUPouXhppDGKvUM/e4YpxVhjHnuHTvYM7IOh7B3q2zNQEEazd6hpz0BEmM/ecT61Z2AjDGnv2H17BkrCqPYOje0ZzDYK5rV3iLRnYCcMbe/wbs9AURjd3sGXTwJRYX57B5RPYiDzp5LQz0qyouQ3JXE9NA3jCAp+W34BvzY/UPQFOiUeZiL/ifwn8p/IfyL/ifwn8h80ztYW1mVvD+ly+87O7UgTNea2IsZFPMcB1iuEgSPcWLeEkogBtGzxXCLBqiU4Ll0sWgIUEcKtNctsfBhiHsTfyamNjhtLluQT+Dvpk+V0NdBeyff4T+Q/kf9c3xBhZ3WHhYrQs7rDMkXwWd1hlSJ8vvDZCGgg+4qEs7rDGsUoZ3UHUrBb7y9S5gufJYqc+cJnhyJpvvBZociaL3xWKJLmOI4NirRzfs025QKPKaPJucEUeoyWKSfZsXpI+HPtEXAp0F7dle3TMXFeFVEpCd6l0z6DX8GkBIauBCOUm5g97ryI3o5JgU1Odj6WVldbg4kxKQ5OWVaYgYpaRkTKRKomjJsSbHgUjwC4WuM2+rXF/wzBmrQEGtz5xn45HiUTze8MbLFCu6TevqUptDlk3dIWzruwzUrANWmxLky5OCTPfuH3fQqH4jH0A+UD+GM0hb+6Ir+97j9hyuQXpmWGMkno7UdG8rn+aMInPzYun3iqMGb55B7e/vziHWNJuOUH+2SGL2lQB+yGWJQR4s29nQTf0/bf/9aOagkZ9gvgRocuCUSDOx7iI5QlSVLav8wBK5bakrossrAAP3q2KQ4okqORIL5swvvTTHJF6llFXr6p6r/FkBDuwnkEuHy/yJ2UzqgVbOiOHrOAQwjCem9uFhAmJiMoTpb1SVuTF6SD0N6ba091MY7jRZ52qxbEpcU5CO69ueZUF+M4niRdEBtkKAfhvTfXmupiHEfEZYFykNB7c41ZhBjHSRKuS+ief3hV7dn6KhQZvTfXl4piHIdOExOBZWE6is/WV5FI6b25tlQU4zgSaCxRVDlMR5fZ+roqZ6EvulJNjONIoSmJAEN0VJ+trwKR1HtzTakkxnEkkRG1ooXoqD5bXwUiq/fmelJFjOPIoqmIp8NzVJ+trwKR1Xtzc9BNDZYj38QmOyQerrrwHNVn66tApPXeXEukxjjOVsC7xVPsKx0a/qcn4Tm6zNbXVSXOuppNROxRx6VE3BzH+bC8po/5zj2h2ZkkViyWuBuao/ZsfRUMpb20qyDFdTFHa0SkyC8jwuY4Dhl7p2JJQ/VqeVYVn62vsmjAJipJBnC29mqKwMPXc4tGLM3CoQrN76g+W18lIMFvUtBAz6QwSodeNH2YXmRjVfXZ+iqHADJ186m1GuMGN911WoWROAxFMwzT+/KwqvpsfZXDLlx23ADVJsDEiqP1TFwwaEN1FJ+tr5Kg6D40GFjt2CTpw3sUn62vcpiYQIvz3lxtxB6xTh3rMQdxWI7qs/VVCr4IdjaqbOCNKvyqS5JFHOLfUX22vgpCQMsRfZ5JOyE1l7O6qZwlbUJ8dJmtr6uy64Qo1ddYEQBLmI/is/VVHaZCjeJNr1qG3BDtCVUhf0Bqz9ZXhfDFTKWMQM36GsTCXV4D77SnmdGp+921kC0YNesnO0vHXz4Z7xDIdn57VeKxPp4ksR7q48E7eApuzkaZG8qI2Jsb66X+SbzTH75EJitTX6OZ8FuJnVIaXupbxzz9kOxhW+vQnUaZ+slNx59srmNP7Qthnf5Oo3bofTdshAfGjHo7iCojc6m4iBtP7WniEySuGIlqdK3KaAoPEbin9uNRCbL77JCpRoGVRuuh6zle+kuCRFDkrttMlGbar4IUO6XRlPwZ0rz0Dwr3MCFUNRpx1tWMmAbkFUfmwvftnYf+8CEc5PXefEkRHcgi5cBD/08RDtJ6b648mgV9EdXfaYyDtN6bq4+sJi9iljpDOcjqvbkCadqEuMSNGH9W0AganHU1SqSxpD+CthHhvxUKoksq83da0iUpBfgriEhQ/6yrUSVNWyeEePTPNW4wCcqfdTXqpMlIj9+9+qONSlD9rKtZfiTkH4bGXyBGT+MvcOVmXt7MPfVZfRNK1pCpzKvpxXqMq8Yb48rNt3DwDtrJj96dmE4NgIwgiwRZja/LfV+orp693uA066yrUbMFJB1omqyfsJl0mGk8iVanU9ZMkTcBMh+wVVlTOSfKyrqPoBTM3+KnDt8ZRkWjj6fyF2R6Ko/UMKOn8jgNbTyVz/NLojyVv8znqTxKQx9P5V/RNM1xeZ7K40ma2/NL0jyVf5DPU3lEySUWp/O8keupPKLkf1jcmp/17Nmb+/AF2FN5hi4oDe08lb/dm6fyx/k8lUdraOKp/GXJnsojtXzDmngqf0m2p/Jo8s5pAt47r5DkqTxKe9g8nsr/E5+n8igNzTyVf4U0T+VR2mYG8lS+4fFUHqehnafypx0dJHgqjyg579VT+VcI9lT+MqYsn3w6l+GpPK0NBKQLSiufrI+n8g9K9VQep7UvZERP5VFou243HL8B77anGdmPUT3mPkwkqv2VRv4T+U/kP5H/7FXJgySfLNmrht3s5AqLDDkyN9bsnRaKnvZg0T4cgJj0WkFJkNTFd8uFZtZy3HQJy/Y0zazl+EhKB6E7L92G9LKWYyWJSxlTdDs7WlnLQ2QG19ntslxJdLKW46b9tUuoJ6eRtRw1Sd8vo36yPtZy3EQIy2gXQhtrOTqUnR1drOUYEV2s5SiXZm+vQbpsbTVoVyL/ifwn8p/IfyIEaGn5k5jq2NKXHNJzKNcCghNJW1fgWLxOlJUafmdoXUmRXep55sbtgmN2EanqnkM1gW8D9HHM0FmKPGtb23W91/h9AkbjtiUlVSclT4oF3xgmXlPjPXHwGdJKTs+6rnIiVg+xe9V13bB1JNP6jahth537+nh6gSoiBY6diN3ErBN3ckacBWnNjY32spEW7oL/lXNT3zEysmBY127AFUP2RCI1NfYXjbOu67nifvfltG2Ge+L5YVewrcWLspBuEchaSjpIilKwFFz7zaRba4pywbZAF90Q2ewlbruemf5cEInPVsIXbTMwOp8kWsgEfEOYSfjasCU+UiyYR9J36MXukbZDZniutbVtFd1XCUnVCZdKdE62WsKu2ta1oLOC64ZtilFsGV1VMhOXAqLGWMC+ajDf2sxDtjXFMrLNwP3WAnYVi9gL6x2wrDo0YvNw09YiP82nRBxfcMalNW1ZaM2SoSKmbdhFyf9qFUTcn4q0+JT9sMUd5oyugCKxRdHNWi+xPGFUqLlieLIIhlGjP6pwR8n5MlZd5yXmb2ddARmdJ0WHMQwe8LoTZ9vYQzRflBN2ICVRFiMeEN9dEmU6SnYok7LwEPHHM9bvrMUTNmRbLaAP6rbli+dnHNkJyCToYLOpZtSHCY4MJLM29WoWWiCIf0jReFjU0LoxT3i2K0pm6YVBXHws5imhUhad5QkutsCqdTGM8cNzi8rGXCbTkr3XwfbJXdZOSy7je2yrBV54KrUV9VzZtezoqgMtx3VZuZ/n/ccXn7OuKms4DzH7DbPtqLeFurIpHgi3WwDJQOZm1QLezLa+50tQC2+2qJzNOD/ILLoYAzzST6j0dczeF7xDXxVBxe7++HcVU7uZ9DEGeGRSzVI+O2hSl531UfESj1moTvjs9OmsmoT7D2TDCfVhmxUAsO4s84G/2pmzKhQCh0lpMszCd2YF8QgY4WTAc2UPr+sHV+3pEArGr5l4oJiF69kmhhPmOYYy6yfAZn613CH11KSfMecHwmSYhua3um+ske5kO5lBj1S1zs9ttdYkOEetlXcHhWuKV1loP3tYJxRPQ/H+9xCy0XALmxKhyWuFvMuR/qea8St3FHm4S0PzW3UHrN9WNZj+048UoEpZaK09gJSvgeB9yxgBVKGHalgasBKqz0I2Gi6yKRGavFXMO1pNzUr9hHygBVbv6nD8hp04cbtNgcgfCkDTRah+1cUGsDJ2CBj8bgBBsxV4QgCi+JT8Wwi5806U8AwWyirtpxyHZxU8q51XsUbvEuqu4Cadf/3dhDWvcmwdcs9yFOts1aXwrbrSO/PqhsbkRjTFZo/G6ragvpgqwpv5gCZOBUBoR5PXCXlJQ8oFvfMVVzV8I+2cjWxoTQXOk6m0N8JX+JXV7KWxZaf4nGcAg56mDpdCWXIHrRjmZUv4l4yQmaVPwTlKVYXVCxihzGrKlGkAamMe62SpnOkddIQ/VOwAC2oGI389g/8uwuoFiOA7N5DGADIBKDxFp/ShdqI2XtEYQNxQgD8AG05fhuBSGWNiNi3k6Ti9JcYYz38jkN9uhm9YXbMGeBmGzzt6OOmB2wZJzxUASBqsnP+GY2AAePMFb/bJw1nYTJ/UwC5N8jHaQZWxjSHGGCRBLYLP3TLOO6FxuTHHBdhjnfRhM5Okg+KXiUFKZVVyWb0pzRa/FazEbpnlHQaoctYcJRcn0Ptvl0zCZsBZlLcwS1puZvu6HSFSuWySz0ALcFbshdiYZmrPJVoXH0XOJMVokiQcpzSN7dIFUqEfqVFiLWQvOZP8KENsFuCWxpkwj4u6BC+wtSnnN0enapAsLjW84SIshiuST+tkkRrmJrm/o7W/xgagmGPNRVKnYNQfOlf3W0MfomeJMS5uqnFhB0CrR4tHU24wx5LMINNTHT5XADxjlceqZ0ZgAHtTNexS2dXxeNbGcUP8OdSs8ouzMLrySWZ1PEVmAFZ2cIZR4tnRIjqzqDtYaKhBzUFH6LzdZIQwCmaFPLZpwunLIoOnGWGVmWEXs5tB7sYrw0ZOObSaKpWURI11VhkLn4PqqprSpMlolNflbI/4IFzzcpmBNUTY8Lq69doyJkdp1RLo384Fq7TH7s5zEXXnudDNAawmoyav2C5yDAy2VZIw/g5C6QrXwTq9S6DG9c69sdC8ynWnqeC9eF63Lo3iGeLo127MR30wHS7cWx1Q23rpzt3YULsRY0ajNpZoXqywqc6XQivihb2Vh9i5iXOHhpRp2QrNnHJH3JEeTG1BNKhnGU09hd1NGcesncyKRPsHXK1pEVLYrdbN5x2VZaqTOw4fci31q56x9hE3obe07o1yBn7Spjsl6pu72sqyKs2IP4M2JHdWpWQ1G58NF761H+S83e4dZmBD8sCtkPxGxbRqpLao6ad8aezT0s/VrN91QuRlCdl7f9pxhBB3ZQJ1RNKPdkMyKbsYDiC8n6ems+ph8oGM1V9GsOO9/rDbvVz9u8zIRx6uZuG9GysFFULLMIBWE2DV3rY+zaBhe2DdScUw17fdgpF3xeA/UFMheHCsYlJ2fmrT1vW7yINbFdTu6nD/EY7OTk84HAkaViXsirbPGV+LjDU6BWU1bNOG7+PLpJ9hAqdcoS/6u5bLLx7YI9Vu6DfG1yJuh53rrawnv4vaDsqmkmEBH7T5Qljw+OaatZ1rKQVT3dXgH1+huLVdBXvjXZd912Y8ProueAJACU95c4y4ITzRnrDGJKDrZoPV7pG1s65jDc7AhPBKu/HmFjFieI7lOBs8chYp71gSVeWEyxP4wZX0jvm8gJ/wjylRynQDPkYOY43hcTOPaU7myDdwDZ2W2QdRixjCJ67PFuI3wxWrLkSNmFDatkM3Zqz5hgrOqEM90rat5R40uNp9Fxu2nl76YQdquwgX1vVxRQ8YIyY08xh1A4lTb8OvOTTE2ObE9BgZ9tCIP/F+ZPD4ShNuwDN2ZltUMnRajES0qNFyI6PTyuOQaZWEMIf3TS0rBXMA4shh1fI4mFoV+YYkasTkYJ0JMzxKGehNapxHGDsVmY0YGDEn0SMUyyneRv9Y9GHBowslMqNwVU44xnkEwYzSMRUc10C7yEkCD+ExMEwUFnjsDIfkGJlJG1YX9sC6oJKktdjRyuMamUirgIUihga42+tQ7BWcas0AtWMFXlwLjEqkgAGGQTd7IT7vL/hG2s3UI6kVt+2Qd9TjFoQ9p8VH43xMjTwvr3WhMtrQ88Zt21Kp98TDqPO2DYKSmIg+uXeVJDX9lZzVdKylM2DEu6nhieTeF/EGFeOlQZxXY1dJkjDGan4ImIUVMEwPGfktkkTAoKIP0dXQzqu2K/7EL7eASXpZ+0J7/zQfFi5MUdZK/otRlB04Tv8NepS0ZYjtPIll6Zg2aFci/4n8J/KfyH8i/4n8J/KfyH8i/4n8J/KfyH8i/4n8J/KfyH8i/4n8J/KfyH8i/4n8J/KfyH8i/4n8J/KfyH8i/zk8EA0=;" vertex="1" parent="1">
          <mxGeometry x="-209" y="-51" width="746.17" height="501" as="geometry" />
        </mxCell>
        <mxCell id="bljLy4e-DAk8Oz0xdZx6-1" value="By : Ants Are Everywhere&lt;br&gt;source :&amp;nbsp;&lt;a href=&quot;https://www.youtube.com/watch?v=uOfPhm3ah6Y&quot;&gt;(147) Let&#39;s read the Chromium browser source code, Part I - YouTube&lt;/a&gt;&lt;br&gt;type : Technical" style="text;html=1;align=left;verticalAlign=middle;resizable=0;points=[];autosize=1;strokeColor=none;fillColor=none;" vertex="1" parent="1">
          <mxGeometry x="550" y="331" width="434" height="55" as="geometry" />
        </mxCell>
        <mxCell id="bljLy4e-DAk8Oz0xdZx6-8" value="By : Hitesh Chaudhary&lt;br&gt;source :&amp;nbsp;&lt;a href=&quot;https://www.youtube.com/watch?v=5rLFYtXHo9s&quot;&gt;(150) How does a browser work ? | Engineering side - YouTube&lt;/a&gt;&lt;br&gt;type : Normal" style="text;html=1;align=left;verticalAlign=middle;resizable=0;points=[];autosize=1;strokeColor=none;fillColor=none;" vertex="1" parent="1">
          <mxGeometry x="550" y="267" width="400" height="55" as="geometry" />
        </mxCell>
      </root>
    </mxGraphModel>
  </diagram>
</mxfile>
